<?xml version="1.0" standalone="no"?>
<!DOCTYPE svg PUBLIC "-//W3C//DTD SVG 20010904//EN"
 "http://www.w3.org/TR/2001/REC-SVG-20010904/DTD/svg10.dtd">
<svg version="1.0" xmlns="http://www.w3.org/2000/svg"
 width="180.000000pt" height="180.000000pt" viewBox="0 0 180.000000 180.000000"
 preserveAspectRatio="xMidYMid meet">
<metadata>
Created by potrace 1.16, written by Peter Selinger 2001-2019
</metadata>
<g transform="translate(0.000000,180.000000) scale(0.100000,-0.100000)"
fill="#000000" stroke="none">
<path d="M0 900 l0 -900 900 0 900 0 0 900 0 900 -900 0 -900 0 0 -900z m327
145 c11 -8 23 -24 26 -35 4 -16 0 -20 -20 -20 -13 0 -31 7 -40 15 -19 19 -48
16 -48 -5 0 -9 17 -20 40 -28 44 -14 75 -44 75 -72 0 -29 -48 -60 -90 -60 -23
0 -48 8 -64 21 -35 28 -34 49 4 49 17 0 30 -4 30 -10 0 -5 14 -10 30 -10 45 0
38 27 -11 40 -45 12 -79 41 -79 67 0 9 10 27 22 40 25 27 91 32 125 8z m133 5
c0 -7 6 -7 19 0 79 42 161 -34 140 -130 -14 -64 -85 -99 -140 -70 -18 10 -19
7 -19 -50 l0 -60 -30 0 -30 0 0 160 0 160 30 0 c17 0 30 -5 30 -10z m371 -19
c21 -22 29 -39 29 -65 l0 -36 -75 0 c-60 0 -75 -3 -75 -15 0 -20 47 -30 74
-15 13 6 35 10 51 8 l28 -3 -31 -32 c-26 -28 -37 -33 -77 -33 -38 0 -52 5 -76
29 -25 25 -29 37 -29 81 0 44 4 56 29 81 24 24 38 29 76 29 38 0 52 -5 76 -29z
m249 4 c20 -21 23 -36 24 -107 l1 -83 -27 -3 -28 -3 0 68 c0 82 -13 106 -55
101 -30 -3 -30 -3 -35 -83 -5 -78 -6 -80 -32 -83 l-28 -3 0 109 0 110 79 0
c70 1 81 -2 101 -23z m130 13 c0 -9 3 -9 12 0 19 19 83 14 109 -7 21 -17 24
-29 27 -110 l4 -91 -31 0 -31 0 0 73 c0 77 -9 97 -45 97 -36 0 -45 -20 -45
-97 l0 -73 -30 0 -30 0 0 110 0 110 30 0 c17 0 30 -5 30 -12z m259 -53 c13
-36 26 -65 30 -65 4 0 16 25 26 55 11 30 22 55 26 55 4 0 12 -13 19 -30 11
-27 8 -40 -37 -147 -48 -113 -51 -118 -81 -121 l-32 -3 24 55 24 55 -43 105
-44 106 33 0 c31 0 33 -3 55 -65z"/>
</g>
</svg>
